<?xml version="1.0" standalone="no"?><!DOCTYPE svg PUBLIC "-//W3C//DTD SVG 1.1//EN" "http://www.w3.org/Graphics/SVG/1.1/DTD/svg11.dtd"><svg t="1597235503244" class="icon" viewBox="0 0 1024 1024" version="1.1" xmlns="http://www.w3.org/2000/svg" p-id="4609" xmlns:xlink="http://www.w3.org/1999/xlink" width="200" height="200"><defs><style type="text/css"></style></defs><path d="M71.9 909.8c-2.2 8.4-12.5 5.9-11.9-2.9 13.1-187 71.1-284.1 128.1-352.8C274.7 449.9 469.8 352.7 604 341.3c10.6-0.9 18.9-11.7 18.9-24.8V157.9c0-21.7 21.1-32.9 34.1-18.2l299.5 339.5c9 10.2 8.6 27.6-0.8 37.2L662 817.6c-13.2 13.5-33.3 2-33.3-19V604.3c0-12.9-8.1-23.7-18.6-24.7-85.7-8.5-287.5 10.3-369.1 70.2-34.8 25.4-129.8 112.4-169.1 260z" p-id="4610"></path></svg>